<svg xmlns="http://www.w3.org/2000/svg" viewBox="0 0 1200 720" role="img" aria-labelledby="title desc">
  <title id="title">Grand strategy hotel map scene</title>
  <desc id="desc">A dark strategic map with travel routes, city nodes, and hotel planning cards.</desc>
  <defs>
    <radialGradient id="glow" cx="50%" cy="46%" r="62%">
      <stop offset="0" stop-color="#2dd4bf" stop-opacity=".23"/>
      <stop offset="1" stop-color="#0f172a" stop-opacity="0"/>
    </radialGradient>
    <linearGradient id="panel" x1="0" x2="1" y1="0" y2="1">
      <stop offset="0" stop-color="#f8fafc"/>
      <stop offset="1" stop-color="#dbe6ef"/>
    </linearGradient>
  </defs>
  <rect width="1200" height="720" fill="#111827"/>
  <rect width="1200" height="720" fill="url(#glow)"/>
  <g fill="none" stroke="#334155" stroke-width="2" opacity=".55">
    <path d="M0 120h1200M0 240h1200M0 360h1200M0 480h1200M0 600h1200"/>
    <path d="M120 0v720M300 0v720M480 0v720M660 0v720M840 0v720M1020 0v720"/>
  </g>
  <path d="M186 310c108-68 204-86 318-54 122 34 192-92 330-44 74 26 122 88 202 82" fill="none" stroke="#2dd4bf" stroke-width="5" stroke-linecap="round" opacity=".8"/>
  <path d="M218 450c110-14 176-98 290-74 116 24 158 100 268 80 76-14 118-70 208-62" fill="none" stroke="#ff6b4a" stroke-width="4" stroke-dasharray="12 14" stroke-linecap="round" opacity=".75"/>
  <g>
    <circle cx="188" cy="310" r="12" fill="#ff6b4a"/>
    <circle cx="404" cy="254" r="10" fill="#2dd4bf"/>
    <circle cx="612" cy="274" r="13" fill="#f59e0b"/>
    <circle cx="834" cy="212" r="10" fill="#2dd4bf"/>
    <circle cx="1036" cy="294" r="14" fill="#ff6b4a"/>
    <circle cx="508" cy="376" r="10" fill="#f59e0b"/>
    <circle cx="776" cy="456" r="12" fill="#2dd4bf"/>
  </g>
  <g opacity=".95">
    <rect x="92" y="78" width="258" height="150" rx="18" fill="url(#panel)"/>
    <rect x="118" y="108" width="112" height="12" rx="6" fill="#ff6b4a"/>
    <rect x="118" y="138" width="184" height="10" rx="5" fill="#94a3b8"/>
    <rect x="118" y="164" width="138" height="10" rx="5" fill="#cbd5e1"/>
    <path d="M258 176l34-20 34 20-34 20z" fill="#2dd4bf"/>
  </g>
  <g opacity=".95">
    <rect x="780" y="470" width="300" height="158" rx="18" fill="#f8fafc"/>
    <rect x="812" y="502" width="70" height="70" rx="10" fill="#1f2937"/>
    <path d="M828 548v-34l20-12 20 12v34l-20 12z" fill="#ff6b4a"/>
    <rect x="910" y="510" width="116" height="12" rx="6" fill="#2dd4bf"/>
    <rect x="910" y="540" width="132" height="10" rx="5" fill="#94a3b8"/>
    <rect x="910" y="566" width="90" height="10" rx="5" fill="#cbd5e1"/>
  </g>
  <g fill="#f8fafc" opacity=".82">
    <circle cx="104" cy="622" r="3"/>
    <circle cx="290" cy="128" r="2"/>
    <circle cx="620" cy="96" r="3"/>
    <circle cx="1110" cy="158" r="2"/>
    <circle cx="980" cy="650" r="3"/>
  </g>
</svg>
