<svg xmlns="http://www.w3.org/2000/svg" viewBox="0 0 640 420" role="img" aria-labelledby="title desc">
  <title id="title">Isometric hotel tower</title>
  <desc id="desc">A stylized isometric hotel tower with podium, street, and rooftop lights.</desc>
  <defs>
    <linearGradient id="sky" x1="0" x2="1" y1="0" y2="1">
      <stop offset="0" stop-color="#172033"/>
      <stop offset="1" stop-color="#26384f"/>
    </linearGradient>
    <linearGradient id="tower" x1="0" x2="1" y1="0" y2="1">
      <stop offset="0" stop-color="#f8fafc"/>
      <stop offset="1" stop-color="#dbe5ef"/>
    </linearGradient>
    <linearGradient id="side" x1="0" x2="1" y1="0" y2="1">
      <stop offset="0" stop-color="#c5d3e2"/>
      <stop offset="1" stop-color="#8fa3b8"/>
    </linearGradient>
  </defs>
  <rect width="640" height="420" rx="34" fill="url(#sky)"/>
  <path d="M88 316 312 188l236 136-224 76z" fill="#0f172a" opacity=".35"/>
  <path d="M146 302 322 202l172 100-176 100z" fill="#334155"/>
  <path d="M322 202v-82l112 64v82z" fill="url(#side)"/>
  <path d="M210 184 322 120v82L210 266z" fill="url(#tower)"/>
  <path d="M210 184 322 120l112 64-112 64z" fill="#eef5fb"/>
  <path d="M240 282V152l82-48 82 48v130l-82 48z" fill="#f8fafc"/>
  <path d="M322 104l82 48v130l-82 48z" fill="#b8c7d8"/>
  <path d="M240 152l82 48 82-48-82-48z" fill="#f1f5f9"/>
  <g fill="#2dd4bf">
    <rect x="263" y="178" width="18" height="24" rx="3"/>
    <rect x="296" y="197" width="18" height="24" rx="3"/>
    <rect x="263" y="222" width="18" height="24" rx="3"/>
    <rect x="296" y="241" width="18" height="24" rx="3"/>
  </g>
  <g fill="#ffb86b">
    <path d="M347 201l18-10v24l-18 10z"/>
    <path d="M377 184l18-10v24l-18 10z"/>
    <path d="M347 246l18-10v24l-18 10z"/>
    <path d="M377 229l18-10v24l-18 10z"/>
  </g>
  <path d="M272 296v-38l50 28v38z" fill="#ff6b4a"/>
  <path d="M322 286l50-28v38l-50 28z" fill="#c94d38"/>
  <path d="M272 258l50-28 50 28-50 28z" fill="#ff8a6e"/>
  <path d="M140 322l54-30 52 30-54 30z" fill="#2dd4bf" opacity=".75"/>
  <path d="M448 318l42-24 42 24-42 24z" fill="#ff6b4a" opacity=".8"/>
  <g stroke="#94a3b8" stroke-width="4" stroke-linecap="round" opacity=".6">
    <path d="M106 342h132"/>
    <path d="M402 348h122"/>
  </g>
</svg>
